<svg width="18" height="17" viewBox="0 0 18 17" fill="none" xmlns="http://www.w3.org/2000/svg">
<g opacity="0.9">
<path d="M4.41474 8.36941C4.41474 9.37801 3.59549 10.1977 2.58237 10.1977C1.56926 10.1977 0.75 9.37801 0.75 8.36941C0.75 7.36081 1.56926 6.54114 2.58237 6.54114C3.59549 6.54114 4.41474 7.36081 4.41474 8.36941Z" stroke="white" stroke-width="1.5"/>
<path d="M7.69648 14.1602C7.69648 15.1688 6.87722 15.9885 5.86411 15.9885C4.851 15.9885 4.03174 15.1688 4.03174 14.1602C4.03174 13.1516 4.851 12.3319 5.86411 12.3319C6.87722 12.3319 7.69648 13.1516 7.69648 14.1602Z" stroke="white" stroke-width="1.5"/>
<path d="M14.0651 14.1602C14.0651 15.1688 13.2459 15.9885 12.2328 15.9885C11.2196 15.9885 10.4004 15.1688 10.4004 14.1602C10.4004 13.1516 11.2196 12.3319 12.2328 12.3319C13.2459 12.3319 14.0651 13.1516 14.0651 14.1602Z" stroke="white" stroke-width="1.5"/>
<path d="M17.2497 8.36941C17.2497 9.37801 16.4304 10.1977 15.4173 10.1977C14.4042 10.1977 13.585 9.37801 13.585 8.36941C13.585 7.36081 14.4042 6.54114 15.4173 6.54114C16.4304 6.54114 17.2497 7.36081 17.2497 8.36941Z" stroke="white" stroke-width="1.5"/>
<path d="M14.0651 2.57827C14.0651 3.58688 13.2459 4.40654 12.2328 4.40654C11.2196 4.40654 10.4004 3.58688 10.4004 2.57827C10.4004 1.56967 11.2196 0.75 12.2328 0.75C13.2459 0.75 14.0651 1.56967 14.0651 2.57827Z" stroke="white" stroke-width="1.5"/>
<path d="M7.69648 2.57827C7.69648 3.58688 6.87722 4.40654 5.86411 4.40654C4.851 4.40654 4.03174 3.58688 4.03174 2.57827C4.03174 1.56967 4.851 0.75 5.86411 0.75C6.87722 0.75 7.69648 1.56967 7.69648 2.57827Z" stroke="white" stroke-width="1.5"/>
</g>
</svg>
