<svg width="128" height="75" viewBox="0 0 128 75" fill="none" xmlns="http://www.w3.org/2000/svg">
<path fill-rule="evenodd" clip-rule="evenodd" d="M63.6284 0C66.6416 0 69.4721 0.114079 70.933 0.296606C72.257 0.479132 74.5625 0.889817 76.069 1.23205C77.5756 1.57429 79.9496 2.23595 81.3192 2.71509C82.6888 3.19422 84.6291 3.87869 85.6106 4.28938C86.5694 4.67725 88.5096 5.56707 89.8793 6.25155C91.2489 6.93602 93.8055 8.37342 95.5403 9.42295C97.2523 10.4725 99.7633 12.1609 101.087 13.1419C102.434 14.123 104.785 15.9483 106.337 17.2032C107.89 18.458 110.446 20.6027 112.021 21.9717C113.596 23.3406 117.637 26.9683 120.992 30.0713C124.371 33.1514 127.315 35.9806 127.566 36.3685C127.795 36.7335 128 37.2355 128 37.4408C128 37.669 127.612 38.285 127.155 38.8098C126.676 39.3117 123.914 41.9127 121.038 44.5594C118.162 47.206 114.966 50.1036 113.962 50.9934C112.957 51.8604 110.903 53.6172 109.396 54.8721C107.89 56.127 105.516 58.0207 104.146 59.093C102.776 60.1654 100.494 61.8309 99.1241 62.7664C97.7545 63.7018 95.5403 65.1164 94.2163 65.915C92.8924 66.6907 91.0434 67.7174 90.1075 68.1965C89.1716 68.6757 87.4824 69.4514 86.3411 69.9077C85.1998 70.3869 83.4193 71.0713 82.3464 71.4364C81.2735 71.8014 79.5387 72.349 78.4659 72.6456C77.393 72.9422 75.4527 73.3986 74.1288 73.6495C72.8048 73.8777 70.4993 74.2199 68.9927 74.3796C67.2351 74.5393 64.8154 74.6078 62.2588 74.5165C60.0675 74.4253 57.2598 74.2199 56.0499 74.0146C54.8173 73.8321 52.7172 73.4214 51.3704 73.102C50.0008 72.7825 47.8779 72.1665 46.6225 71.733C45.367 71.3223 42.993 70.3869 41.3723 69.7024C39.7516 68.9951 37.058 67.6946 35.4373 66.782C33.8166 65.8921 31.0774 64.2266 29.3882 63.1086C27.6991 61.9678 25.2794 60.2794 24.0239 59.3212C22.7685 58.3629 20.5086 56.5833 19.002 55.3284C17.4955 54.0735 15.3954 52.2939 14.3225 51.3356C13.2497 50.4002 11.4692 48.8031 10.3507 47.7992C9.20934 46.7725 6.94949 44.7191 5.32879 43.2132C3.68526 41.7074 1.85912 40.019 1.26562 39.4486C0.694949 38.8782 0.147106 38.1025 0.0557988 37.7374C-0.0583352 37.3039 0.0101453 36.8476 0.19276 36.5282C0.375374 36.2316 2.06456 34.5204 3.93635 32.7407C5.83098 30.9383 9.16369 27.8582 11.3551 25.8504C13.5464 23.8426 16.902 20.9449 18.7738 19.3707C20.6684 17.7964 23.0652 15.8342 24.1381 14.99C25.2109 14.1686 27.8817 12.2977 30.073 10.8147C32.5612 9.17197 35.4602 7.4836 37.72 6.36562C39.7288 5.38454 42.331 4.19812 43.4952 3.76461C44.6365 3.3083 46.6453 2.64664 47.9464 2.25877C49.2247 1.89372 51.2563 1.39177 52.4433 1.11798C53.6303 0.867001 55.5478 0.524764 56.6663 0.342237C57.9217 0.136895 60.6381 0.0228158 63.6284 0ZM55.6391 11.8186C54.9542 12.0696 53.3107 12.9822 51.9868 13.872C50.6628 14.739 48.791 16.1308 47.8323 16.9522C46.8507 17.7735 45.5953 19.0512 45.0246 19.7585C44.4539 20.4886 43.4952 21.7891 42.9017 22.679C42.3082 23.5688 41.4408 25.1887 40.9614 26.3295C40.4592 27.4475 39.8201 29.364 39.5233 30.5504C39.1581 31.9194 38.907 33.7218 38.8157 35.4558C38.7472 37.0073 38.7929 39.1064 38.9527 40.2928C39.0896 41.4564 39.5233 43.4186 39.9114 44.6278C40.2994 45.8599 41.0299 47.6395 41.5321 48.5749C42.0343 49.5104 42.993 50.9934 43.6322 51.8604C44.2713 52.7274 45.6181 54.2104 46.6225 55.1459C47.6268 56.0585 49.2247 57.3134 50.1606 57.8838C51.0965 58.477 52.74 59.3212 53.8129 59.7775C54.8858 60.2338 56.6206 60.827 57.6935 61.1008C59.0174 61.443 60.661 61.6484 62.8295 61.7397C65.2948 61.8537 66.5731 61.7853 68.4221 61.4659C69.746 61.2605 71.6863 60.7586 72.7592 60.3935C73.832 60.0285 75.3614 59.344 76.1832 58.9105C77.0049 58.4542 78.3289 57.61 79.1507 56.994C79.9724 56.4007 81.4105 55.1002 82.3692 54.1192C83.328 53.1381 84.5834 51.6322 85.1313 50.7424C85.7019 49.8526 86.4324 48.6205 86.7292 48.0045C87.0487 47.3657 87.5737 46.1565 87.8933 45.2666C88.2129 44.3768 88.6466 42.8482 88.852 41.8443C89.1031 40.635 89.2401 39.0151 89.2173 37.0529C89.2173 35.0908 89.0575 33.3111 88.7607 31.8053C88.5325 30.5504 88.0759 28.8621 87.7564 28.0407C87.4596 27.2193 86.8205 25.7819 86.3411 24.8465C85.8846 23.911 84.9487 22.428 84.3095 21.5382C83.6475 20.6483 82.4377 19.2794 81.6388 18.458C80.817 17.6367 79.1963 16.2449 78.0093 15.3323C76.8223 14.4424 75.019 13.3245 74.0146 12.8681C73.0102 12.389 71.7776 11.8186 71.2754 11.5905C70.7732 11.3851 69.3123 11.0885 68.034 10.9516C66.7329 10.8147 64.7926 10.7006 63.6969 10.7235C62.5784 10.7463 60.6153 10.8832 59.2913 11.0429C57.9674 11.2026 56.3239 11.5448 55.6391 11.8186ZM33.9536 19.827C32.5155 20.6712 30.0502 22.2683 28.4752 23.3862C26.9001 24.4814 24.275 26.3979 22.6543 27.6756C21.0336 28.9533 18.7509 30.8014 17.6324 31.7825C16.5139 32.7864 14.6878 34.4291 13.5693 35.433C12.4736 36.4597 11.5833 37.418 11.5833 37.5549C11.5833 37.7146 12.6334 38.8098 13.9345 39.9962C15.2128 41.1598 17.1302 42.871 18.2031 43.8064C19.276 44.7191 21.0793 46.1793 22.1978 47.0919C23.3163 47.9817 25.3251 49.4875 26.649 50.4458C27.973 51.4041 30.4383 53.0468 32.1275 54.1192C33.8166 55.1687 36.5558 56.743 38.1766 57.61C41.0984 59.1387 41.144 59.1387 40.5277 58.3629C40.1625 57.9522 39.2494 56.7202 38.4733 55.6478C37.6972 54.5755 36.5559 52.7958 35.9624 51.6551C35.3689 50.5143 34.4786 48.3696 33.9764 46.8638C33.4742 45.3579 32.9036 43.0535 32.721 41.7302C32.5155 40.4069 32.3557 38.4675 32.3557 37.3952C32.3557 36.3228 32.4699 34.5432 32.6068 33.4024C32.7438 32.2616 33.2003 30.1626 33.634 28.7252C34.0677 27.2878 34.821 25.28 35.3004 24.2761C35.7569 23.2722 36.6015 21.7891 37.1493 20.9678C37.6972 20.1464 38.5874 18.9372 39.1353 18.2755C39.6831 17.6367 40.1168 16.975 40.1168 16.8609C40.1168 16.724 40.094 16.6328 40.0712 16.6328C40.0255 16.6328 39.2266 16.9978 38.2907 17.4541C37.3548 17.9104 35.3917 18.96 33.9536 19.827ZM90.1988 19.9867C90.8608 20.9678 91.888 22.679 92.4587 23.8197C93.0065 24.9377 93.737 26.6945 94.0566 27.6984C94.3761 28.7023 94.8098 30.3907 95.0381 31.4631C95.3577 32.9005 95.449 34.4063 95.449 37.2811C95.449 40.0646 95.3577 41.7074 95.0609 43.0991C94.8327 44.1715 94.399 45.8599 94.0794 46.8638C93.7598 47.8677 93.075 49.556 92.5956 50.6283C92.0935 51.7007 91.1347 53.3891 90.4727 54.393C89.7879 55.3969 88.7836 56.7658 88.1901 57.4046C87.6194 58.0663 87.14 58.6595 87.14 58.728C87.14 58.7964 87.939 58.4542 88.9205 57.9522C89.8793 57.4731 91.7054 56.4692 92.9609 55.7619C94.2163 55.0318 96.636 53.5031 98.3252 52.3852C100.014 51.2444 102.685 49.3506 104.26 48.1414C105.835 46.9322 108.392 44.856 109.967 43.5326C111.542 42.1865 113.688 40.2928 114.738 39.3117V39.3117C115.771 38.3407 115.755 36.6937 114.699 35.7472C112.003 33.3292 110.288 31.844 109.168 30.8927C107.798 29.7519 105.379 27.8353 103.804 26.6261C102.229 25.4397 99.4665 23.4775 97.6404 22.2683C95.8142 21.0818 93.3033 19.5304 92.0478 18.8231C90.7923 18.1158 89.5825 17.5454 89.3542 17.5454C89.1488 17.5454 88.9662 17.7051 88.9662 17.8876C88.9662 18.0702 89.514 19.0284 90.1988 19.9867Z" fill="#FDFDFD"/>
<path d="M50.2288 12.5079C51.6669 12.12 53.6756 11.6637 54.68 11.4811C55.6844 11.2986 56.7116 11.1617 56.9627 11.1389C57.2138 11.1389 56.8029 11.3442 56.0496 11.5952C55.2963 11.8234 54.018 12.4166 53.1963 12.9185C52.3745 13.3977 50.8451 14.4472 49.7722 15.2458C48.6994 16.0215 47.1243 17.3904 46.2341 18.2803C46.1556 18.2646 45.018 19.5558 44.3382 20.3927C44.0151 20.7905 43.4889 21.576 43.1869 21.99C43.0059 22.2383 42.8854 22.2005 42.5824 22.251C41.7751 22.3855 40.065 22.6706 38.5229 22.9291C37.3218 23.1305 36.382 21.826 37.0577 20.8128C37.5827 20.0599 38.4273 18.8963 38.9752 18.2346C39.523 17.5958 39.9567 16.9341 39.9567 16.8201C39.9567 16.6832 39.7741 16.6375 39.5458 16.7288C39.3404 16.7972 40.1393 16.3637 41.3263 15.7933C42.5133 15.2229 44.4308 14.4016 45.5493 13.9681C46.6678 13.5574 48.7907 12.8957 50.2288 12.5079Z" fill="#BAB8C8" fill-opacity="0.8"/>
<path d="M73.8545 12.8273C72.8501 12.3481 71.6175 11.7777 71.1153 11.5496C70.6131 11.2986 70.3848 11.1161 70.6131 11.1161C70.8185 11.1161 72.0968 11.3214 73.4436 11.5952C74.8132 11.8462 76.6166 12.2569 77.5068 12.5079C78.397 12.7588 80.1319 13.3292 81.3874 13.7855C82.6428 14.2419 84.9255 15.1773 86.4321 15.8846C87.9615 16.5919 89.08 17.3904 89.1941 17.5045C88.9887 17.5045 88.8061 17.6642 88.8061 17.8468C88.8061 18.0293 89.3539 18.9876 90.0387 19.9458C90.8913 21.2095 89.7587 22.6592 88.2846 22.2709L85.0009 21.4059C84.2717 21.2138 83.6289 20.7819 83.1334 20.2135C82.6143 19.6182 81.9865 18.9393 81.4787 18.4172C80.6569 17.5958 79.0362 16.204 77.8492 15.2914C76.6622 14.4016 74.8589 13.2836 73.8545 12.8273Z" fill="#BAB8C8" fill-opacity="0.8"/>
<circle cx="63.7319" cy="36.5267" r="17.5742" stroke="#FDFDFD" stroke-width="5"/>
<circle cx="103.772" cy="37.7138" r="2.914" fill="#FDFDFD"/>
<circle cx="23.9076" cy="37.7138" r="2.914" fill="#FDFDFD"/>
<ellipse cx="63.7323" cy="36.7425" rx="5.61214" ry="5.61214" fill="#FDFDFD"/>
</svg>
