<svg width="328" height="275" viewBox="0 0 328 275" fill="none" xmlns="http://www.w3.org/2000/svg">
<g filter="url(#filter0_ddd_960_823)">
<path fill-rule="evenodd" clip-rule="evenodd" d="M163.628 100C166.642 100 169.472 100.114 170.933 100.297C172.257 100.479 174.562 100.89 176.069 101.232C177.576 101.574 179.95 102.236 181.319 102.715C182.689 103.194 184.629 103.879 185.611 104.289C186.569 104.677 188.51 105.567 189.879 106.252C191.249 106.936 193.805 108.373 195.54 109.423C197.252 110.472 199.763 112.161 201.087 113.142C202.434 114.123 204.785 115.948 206.337 117.203C207.89 118.458 210.446 120.603 212.021 121.972C213.596 123.341 217.637 126.968 220.992 130.071C224.371 133.151 227.315 135.981 227.566 136.368C227.795 136.734 228 137.235 228 137.441C228 137.669 227.612 138.285 227.155 138.81C226.676 139.312 223.914 141.913 221.038 144.559C218.162 147.206 214.966 150.104 213.962 150.993C212.957 151.86 210.903 153.617 209.396 154.872C207.89 156.127 205.516 158.021 204.146 159.093C202.776 160.165 200.494 161.831 199.124 162.766C197.755 163.702 195.54 165.116 194.216 165.915C192.892 166.691 191.043 167.717 190.108 168.197C189.172 168.676 187.482 169.451 186.341 169.908C185.2 170.387 183.419 171.071 182.346 171.436C181.274 171.801 179.539 172.349 178.466 172.646C177.393 172.942 175.453 173.399 174.129 173.65C172.805 173.878 170.499 174.22 168.993 174.38C167.235 174.539 164.815 174.608 162.259 174.517C160.067 174.425 157.26 174.22 156.05 174.015C154.817 173.832 152.717 173.421 151.37 173.102C150.001 172.783 147.878 172.167 146.622 171.733C145.367 171.322 142.993 170.387 141.372 169.702C139.752 168.995 137.058 167.695 135.437 166.782C133.817 165.892 131.077 164.227 129.388 163.109C127.699 161.968 125.279 160.279 124.024 159.321C122.768 158.363 120.509 156.583 119.002 155.328C117.495 154.074 115.395 152.294 114.323 151.336C113.25 150.4 111.469 148.803 110.351 147.799C109.209 146.772 106.949 144.719 105.329 143.213C103.685 141.707 101.859 140.019 101.266 139.449C100.695 138.878 100.147 138.102 100.056 137.737C99.9417 137.304 100.01 136.848 100.193 136.528C100.375 136.232 102.065 134.52 103.936 132.741C105.831 130.938 109.164 127.858 111.355 125.85C113.546 123.843 116.902 120.945 118.774 119.371C120.668 117.796 123.065 115.834 124.138 114.99C125.211 114.169 127.882 112.298 130.073 110.815C132.561 109.172 135.46 107.484 137.72 106.366C139.729 105.385 142.331 104.198 143.495 103.765C144.637 103.308 146.645 102.647 147.946 102.259C149.225 101.894 151.256 101.392 152.443 101.118C153.63 100.867 155.548 100.525 156.666 100.342C157.922 100.137 160.638 100.023 163.628 100ZM155.639 111.819C154.954 112.07 153.311 112.982 151.987 113.872C150.663 114.739 148.791 116.131 147.832 116.952C146.851 117.774 145.595 119.051 145.025 119.759C144.454 120.489 143.495 121.789 142.902 122.679C142.308 123.569 141.441 125.189 140.961 126.329C140.459 127.447 139.82 129.364 139.523 130.55C139.158 131.919 138.907 133.722 138.816 135.456C138.747 137.007 138.793 139.106 138.953 140.293C139.09 141.456 139.523 143.419 139.911 144.628C140.299 145.86 141.03 147.639 141.532 148.575C142.034 149.51 142.993 150.993 143.632 151.86C144.271 152.727 145.618 154.21 146.622 155.146C147.627 156.059 149.225 157.313 150.161 157.884C151.097 158.477 152.74 159.321 153.813 159.777C154.886 160.234 156.621 160.827 157.693 161.101C159.017 161.443 160.661 161.648 162.829 161.74C165.295 161.854 166.573 161.785 168.422 161.466C169.746 161.261 171.686 160.759 172.759 160.394C173.832 160.028 175.361 159.344 176.183 158.91C177.005 158.454 178.329 157.61 179.151 156.994C179.972 156.401 181.411 155.1 182.369 154.119C183.328 153.138 184.583 151.632 185.131 150.742C185.702 149.853 186.432 148.621 186.729 148.005C187.049 147.366 187.574 146.156 187.893 145.267C188.213 144.377 188.647 142.848 188.852 141.844C189.103 140.635 189.24 139.015 189.217 137.053C189.217 135.091 189.057 133.311 188.761 131.805C188.532 130.55 188.076 128.862 187.756 128.041C187.46 127.219 186.82 125.782 186.341 124.846C185.885 123.911 184.949 122.428 184.31 121.538C183.648 120.648 182.438 119.279 181.639 118.458C180.817 117.637 179.196 116.245 178.009 115.332C176.822 114.442 175.019 113.324 174.015 112.868C173.01 112.389 171.778 111.819 171.275 111.59C170.773 111.385 169.312 111.089 168.034 110.952C166.733 110.815 164.793 110.701 163.697 110.723C162.578 110.746 160.615 110.883 159.291 111.043C157.967 111.203 156.324 111.545 155.639 111.819ZM133.954 119.827C132.516 120.671 130.05 122.268 128.475 123.386C126.9 124.481 124.275 126.398 122.654 127.676C121.034 128.953 118.751 130.801 117.632 131.782C116.514 132.786 114.688 134.429 113.569 135.433C112.474 136.46 111.583 137.418 111.583 137.555C111.583 137.715 112.633 138.81 113.934 139.996C115.213 141.16 117.13 142.871 118.203 143.806C119.276 144.719 121.079 146.179 122.198 147.092C123.316 147.982 125.325 149.488 126.649 150.446C127.973 151.404 130.438 153.047 132.127 154.119C133.817 155.169 136.556 156.743 138.177 157.61C141.098 159.139 141.144 159.139 140.528 158.363C140.162 157.952 139.249 156.72 138.473 155.648C137.697 154.575 136.556 152.796 135.962 151.655C135.369 150.514 134.479 148.37 133.976 146.864C133.474 145.358 132.904 143.054 132.721 141.73C132.516 140.407 132.356 138.468 132.356 137.395C132.356 136.323 132.47 134.543 132.607 133.402C132.744 132.262 133.2 130.163 133.634 128.725C134.068 127.288 134.821 125.28 135.3 124.276C135.757 123.272 136.602 121.789 137.149 120.968C137.697 120.146 138.587 118.937 139.135 118.275C139.683 117.637 140.117 116.975 140.117 116.861C140.117 116.724 140.094 116.633 140.071 116.633C140.026 116.633 139.227 116.998 138.291 117.454C137.355 117.91 135.392 118.96 133.954 119.827ZM190.199 119.987C190.861 120.968 191.888 122.679 192.459 123.82C193.007 124.938 193.737 126.695 194.057 127.698C194.376 128.702 194.81 130.391 195.038 131.463C195.358 132.9 195.449 134.406 195.449 137.281C195.449 140.065 195.358 141.707 195.061 143.099C194.833 144.171 194.399 145.86 194.079 146.864C193.76 147.868 193.075 149.556 192.596 150.628C192.093 151.701 191.135 153.389 190.473 154.393C189.788 155.397 188.784 156.766 188.19 157.405C187.619 158.066 187.14 158.66 187.14 158.728C187.14 158.796 187.939 158.454 188.921 157.952C189.879 157.473 191.705 156.469 192.961 155.762C194.216 155.032 196.636 153.503 198.325 152.385C200.014 151.244 202.685 149.351 204.26 148.141C205.835 146.932 208.392 144.856 209.967 143.533C211.542 142.187 213.688 140.293 214.738 139.312L216.655 137.509C212.797 134.018 210.538 132.056 209.168 130.893C207.798 129.752 205.379 127.835 203.804 126.626C202.229 125.44 199.467 123.478 197.64 122.268C195.814 121.082 193.303 119.53 192.048 118.823C190.792 118.116 189.583 117.545 189.354 117.545C189.149 117.545 188.966 117.705 188.966 117.888C188.966 118.07 189.514 119.028 190.199 119.987Z" fill="#FDFDFD"/>
</g>
<path d="M150.229 112.508C151.667 112.12 153.676 111.664 154.68 111.481C155.684 111.299 156.712 111.162 156.963 111.139C157.214 111.139 156.803 111.344 156.05 111.595C155.296 111.823 154.018 112.417 153.196 112.919C152.374 113.398 150.845 114.447 149.772 115.246C148.699 116.021 147.124 117.39 146.234 118.28C146.12 118.257 143.769 120.995 143.837 121.087C143.449 121.634 143.053 122.173 143.053 122.173C143.053 122.173 136.282 123.3 135.528 123.437C135.528 123.437 136.556 121.566 137.058 120.813C137.583 120.06 138.427 118.896 138.975 118.235C139.523 117.596 139.957 116.934 139.957 116.82C139.957 116.683 139.774 116.638 139.546 116.729C139.34 116.797 140.139 116.364 141.326 115.793C142.513 115.223 144.431 114.402 145.549 113.968C146.668 113.557 148.791 112.896 150.229 112.508Z" fill="#BAB8C8" fill-opacity="0.8"/>
<path d="M173.855 112.827C172.85 112.348 171.617 111.778 171.115 111.55C170.613 111.299 170.385 111.116 170.613 111.116C170.819 111.116 172.097 111.321 173.444 111.595C174.813 111.846 176.617 112.257 177.507 112.508C178.397 112.759 180.132 113.329 181.387 113.786C182.643 114.242 184.926 115.177 186.432 115.885C187.961 116.592 189.08 117.39 189.194 117.505C188.989 117.505 188.806 117.664 188.806 117.847C188.806 118.029 189.354 118.988 190.039 119.946C190.701 120.927 191.62 122.43 192.008 123.252L183.875 121.109C183.373 120.448 182.278 119.239 181.479 118.417C180.657 117.596 179.036 116.204 177.849 115.291C176.662 114.402 174.859 113.284 173.855 112.827Z" fill="#BAB8C8" fill-opacity="0.8"/>
<g filter="url(#filter1_ddd_960_823)">
<circle cx="163.732" cy="136.527" r="17.5742" stroke="#FDFDFD" stroke-width="5" shape-rendering="crispEdges"/>
</g>
<g filter="url(#filter2_ddd_960_823)">
<circle cx="203.772" cy="137.714" r="2.914" fill="#FDFDFD"/>
</g>
<g filter="url(#filter3_ddd_960_823)">
<circle cx="123.908" cy="137.714" r="2.914" fill="#FDFDFD"/>
</g>
<g filter="url(#filter4_ddd_960_823)">
<ellipse cx="163.732" cy="136.743" rx="5.61214" ry="5.61214" fill="#FDFDFD"/>
</g>
<defs>
<filter id="filter0_ddd_960_823" x="0" y="0" width="328" height="274.557" filterUnits="userSpaceOnUse" color-interpolation-filters="sRGB">
<feFlood flood-opacity="0" result="BackgroundImageFix"/>
<feColorMatrix in="SourceAlpha" type="matrix" values="0 0 0 0 0 0 0 0 0 0 0 0 0 0 0 0 0 0 127 0" result="hardAlpha"/>
<feOffset/>
<feGaussianBlur stdDeviation="50"/>
<feComposite in2="hardAlpha" operator="out"/>
<feColorMatrix type="matrix" values="0 0 0 0 0.501961 0 0 0 0 0.435294 0 0 0 0 0.909804 0 0 0 1 0"/>
<feBlend mode="normal" in2="BackgroundImageFix" result="effect1_dropShadow_960_823"/>
<feColorMatrix in="SourceAlpha" type="matrix" values="0 0 0 0 0 0 0 0 0 0 0 0 0 0 0 0 0 0 127 0" result="hardAlpha"/>
<feOffset/>
<feGaussianBlur stdDeviation="20"/>
<feComposite in2="hardAlpha" operator="out"/>
<feColorMatrix type="matrix" values="0 0 0 0 0.501961 0 0 0 0 0.435294 0 0 0 0 0.909804 0 0 0 1 0"/>
<feBlend mode="normal" in2="effect1_dropShadow_960_823" result="effect2_dropShadow_960_823"/>
<feColorMatrix in="SourceAlpha" type="matrix" values="0 0 0 0 0 0 0 0 0 0 0 0 0 0 0 0 0 0 127 0" result="hardAlpha"/>
<feOffset/>
<feGaussianBlur stdDeviation="10"/>
<feComposite in2="hardAlpha" operator="out"/>
<feColorMatrix type="matrix" values="0 0 0 0 0.501961 0 0 0 0 0.435294 0 0 0 0 0.909804 0 0 0 1 0"/>
<feBlend mode="normal" in2="effect2_dropShadow_960_823" result="effect3_dropShadow_960_823"/>
<feBlend mode="normal" in="SourceGraphic" in2="effect3_dropShadow_960_823" result="shape"/>
</filter>
<filter id="filter1_ddd_960_823" x="43.6577" y="16.4525" width="240.148" height="240.148" filterUnits="userSpaceOnUse" color-interpolation-filters="sRGB">
<feFlood flood-opacity="0" result="BackgroundImageFix"/>
<feColorMatrix in="SourceAlpha" type="matrix" values="0 0 0 0 0 0 0 0 0 0 0 0 0 0 0 0 0 0 127 0" result="hardAlpha"/>
<feOffset/>
<feGaussianBlur stdDeviation="50"/>
<feComposite in2="hardAlpha" operator="out"/>
<feColorMatrix type="matrix" values="0 0 0 0 0.501961 0 0 0 0 0.435294 0 0 0 0 0.909804 0 0 0 1 0"/>
<feBlend mode="normal" in2="BackgroundImageFix" result="effect1_dropShadow_960_823"/>
<feColorMatrix in="SourceAlpha" type="matrix" values="0 0 0 0 0 0 0 0 0 0 0 0 0 0 0 0 0 0 127 0" result="hardAlpha"/>
<feOffset/>
<feGaussianBlur stdDeviation="20"/>
<feComposite in2="hardAlpha" operator="out"/>
<feColorMatrix type="matrix" values="0 0 0 0 0.501961 0 0 0 0 0.435294 0 0 0 0 0.909804 0 0 0 1 0"/>
<feBlend mode="normal" in2="effect1_dropShadow_960_823" result="effect2_dropShadow_960_823"/>
<feColorMatrix in="SourceAlpha" type="matrix" values="0 0 0 0 0 0 0 0 0 0 0 0 0 0 0 0 0 0 127 0" result="hardAlpha"/>
<feOffset/>
<feGaussianBlur stdDeviation="10"/>
<feComposite in2="hardAlpha" operator="out"/>
<feColorMatrix type="matrix" values="0 0 0 0 0.501961 0 0 0 0 0.435294 0 0 0 0 0.909804 0 0 0 1 0"/>
<feBlend mode="normal" in2="effect2_dropShadow_960_823" result="effect3_dropShadow_960_823"/>
<feBlend mode="normal" in="SourceGraphic" in2="effect3_dropShadow_960_823" result="shape"/>
</filter>
<filter id="filter2_ddd_960_823" x="100.858" y="34.7998" width="205.828" height="205.828" filterUnits="userSpaceOnUse" color-interpolation-filters="sRGB">
<feFlood flood-opacity="0" result="BackgroundImageFix"/>
<feColorMatrix in="SourceAlpha" type="matrix" values="0 0 0 0 0 0 0 0 0 0 0 0 0 0 0 0 0 0 127 0" result="hardAlpha"/>
<feOffset/>
<feGaussianBlur stdDeviation="50"/>
<feComposite in2="hardAlpha" operator="out"/>
<feColorMatrix type="matrix" values="0 0 0 0 0.501961 0 0 0 0 0.435294 0 0 0 0 0.909804 0 0 0 1 0"/>
<feBlend mode="normal" in2="BackgroundImageFix" result="effect1_dropShadow_960_823"/>
<feColorMatrix in="SourceAlpha" type="matrix" values="0 0 0 0 0 0 0 0 0 0 0 0 0 0 0 0 0 0 127 0" result="hardAlpha"/>
<feOffset/>
<feGaussianBlur stdDeviation="20"/>
<feComposite in2="hardAlpha" operator="out"/>
<feColorMatrix type="matrix" values="0 0 0 0 0.501961 0 0 0 0 0.435294 0 0 0 0 0.909804 0 0 0 1 0"/>
<feBlend mode="normal" in2="effect1_dropShadow_960_823" result="effect2_dropShadow_960_823"/>
<feColorMatrix in="SourceAlpha" type="matrix" values="0 0 0 0 0 0 0 0 0 0 0 0 0 0 0 0 0 0 127 0" result="hardAlpha"/>
<feOffset/>
<feGaussianBlur stdDeviation="10"/>
<feComposite in2="hardAlpha" operator="out"/>
<feColorMatrix type="matrix" values="0 0 0 0 0.501961 0 0 0 0 0.435294 0 0 0 0 0.909804 0 0 0 1 0"/>
<feBlend mode="normal" in2="effect2_dropShadow_960_823" result="effect3_dropShadow_960_823"/>
<feBlend mode="normal" in="SourceGraphic" in2="effect3_dropShadow_960_823" result="shape"/>
</filter>
<filter id="filter3_ddd_960_823" x="20.9937" y="34.7998" width="205.828" height="205.828" filterUnits="userSpaceOnUse" color-interpolation-filters="sRGB">
<feFlood flood-opacity="0" result="BackgroundImageFix"/>
<feColorMatrix in="SourceAlpha" type="matrix" values="0 0 0 0 0 0 0 0 0 0 0 0 0 0 0 0 0 0 127 0" result="hardAlpha"/>
<feOffset/>
<feGaussianBlur stdDeviation="50"/>
<feComposite in2="hardAlpha" operator="out"/>
<feColorMatrix type="matrix" values="0 0 0 0 0.501961 0 0 0 0 0.435294 0 0 0 0 0.909804 0 0 0 1 0"/>
<feBlend mode="normal" in2="BackgroundImageFix" result="effect1_dropShadow_960_823"/>
<feColorMatrix in="SourceAlpha" type="matrix" values="0 0 0 0 0 0 0 0 0 0 0 0 0 0 0 0 0 0 127 0" result="hardAlpha"/>
<feOffset/>
<feGaussianBlur stdDeviation="20"/>
<feComposite in2="hardAlpha" operator="out"/>
<feColorMatrix type="matrix" values="0 0 0 0 0.501961 0 0 0 0 0.435294 0 0 0 0 0.909804 0 0 0 1 0"/>
<feBlend mode="normal" in2="effect1_dropShadow_960_823" result="effect2_dropShadow_960_823"/>
<feColorMatrix in="SourceAlpha" type="matrix" values="0 0 0 0 0 0 0 0 0 0 0 0 0 0 0 0 0 0 127 0" result="hardAlpha"/>
<feOffset/>
<feGaussianBlur stdDeviation="10"/>
<feComposite in2="hardAlpha" operator="out"/>
<feColorMatrix type="matrix" values="0 0 0 0 0.501961 0 0 0 0 0.435294 0 0 0 0 0.909804 0 0 0 1 0"/>
<feBlend mode="normal" in2="effect2_dropShadow_960_823" result="effect3_dropShadow_960_823"/>
<feBlend mode="normal" in="SourceGraphic" in2="effect3_dropShadow_960_823" result="shape"/>
</filter>
<filter id="filter4_ddd_960_823" x="58.1201" y="31.1304" width="211.224" height="211.224" filterUnits="userSpaceOnUse" color-interpolation-filters="sRGB">
<feFlood flood-opacity="0" result="BackgroundImageFix"/>
<feColorMatrix in="SourceAlpha" type="matrix" values="0 0 0 0 0 0 0 0 0 0 0 0 0 0 0 0 0 0 127 0" result="hardAlpha"/>
<feOffset/>
<feGaussianBlur stdDeviation="50"/>
<feComposite in2="hardAlpha" operator="out"/>
<feColorMatrix type="matrix" values="0 0 0 0 0.501961 0 0 0 0 0.435294 0 0 0 0 0.909804 0 0 0 1 0"/>
<feBlend mode="normal" in2="BackgroundImageFix" result="effect1_dropShadow_960_823"/>
<feColorMatrix in="SourceAlpha" type="matrix" values="0 0 0 0 0 0 0 0 0 0 0 0 0 0 0 0 0 0 127 0" result="hardAlpha"/>
<feOffset/>
<feGaussianBlur stdDeviation="20"/>
<feComposite in2="hardAlpha" operator="out"/>
<feColorMatrix type="matrix" values="0 0 0 0 0.501961 0 0 0 0 0.435294 0 0 0 0 0.909804 0 0 0 1 0"/>
<feBlend mode="normal" in2="effect1_dropShadow_960_823" result="effect2_dropShadow_960_823"/>
<feColorMatrix in="SourceAlpha" type="matrix" values="0 0 0 0 0 0 0 0 0 0 0 0 0 0 0 0 0 0 127 0" result="hardAlpha"/>
<feOffset/>
<feGaussianBlur stdDeviation="10"/>
<feComposite in2="hardAlpha" operator="out"/>
<feColorMatrix type="matrix" values="0 0 0 0 0.501961 0 0 0 0 0.435294 0 0 0 0 0.909804 0 0 0 1 0"/>
<feBlend mode="normal" in2="effect2_dropShadow_960_823" result="effect3_dropShadow_960_823"/>
<feBlend mode="normal" in="SourceGraphic" in2="effect3_dropShadow_960_823" result="shape"/>
</filter>
</defs>
</svg>
